<svg id="visual" viewBox="0 0 900 450" width="900" height="450" xmlns="http://www.w3.org/2000/svg" xmlns:xlink="http://www.w3.org/1999/xlink" version="1.1"><rect x="0" y="0" width="900" height="450" fill="#1c1917"></rect><defs><linearGradient id="grad1_0" x1="50%" y1="100%" x2="100%" y2="0%"><stop offset="10%" stop-color="#f59e0b" stop-opacity="1"></stop><stop offset="90%" stop-color="#f59e0b" stop-opacity="1"></stop></linearGradient></defs><defs><linearGradient id="grad1_1" x1="50%" y1="100%" x2="100%" y2="0%"><stop offset="10%" stop-color="#f59e0b" stop-opacity="1"></stop><stop offset="90%" stop-color="#1c1917" stop-opacity="1"></stop></linearGradient></defs><defs><linearGradient id="grad2_0" x1="0%" y1="100%" x2="50%" y2="0%"><stop offset="10%" stop-color="#f59e0b" stop-opacity="1"></stop><stop offset="90%" stop-color="#f59e0b" stop-opacity="1"></stop></linearGradient></defs><defs><linearGradient id="grad2_1" x1="0%" y1="100%" x2="50%" y2="0%"><stop offset="10%" stop-color="#1c1917" stop-opacity="1"></stop><stop offset="90%" stop-color="#f59e0b" stop-opacity="1"></stop></linearGradient></defs><g transform="translate(900, 450)"><path d="M-292.5 0C-281.2 -36.2 -269.9 -72.4 -255 -105.6C-240.1 -138.8 -221.6 -169 -198 -198C-174.4 -227 -145.8 -254.7 -111.9 -270.2C-78.1 -285.8 -39 -289.1 0 -292.5L0 0Z" fill="#865521"></path><path d="M-146.2 0C-140.6 -18.1 -134.9 -36.2 -127.5 -52.8C-120 -69.4 -110.8 -84.5 -99 -99C-87.2 -113.5 -72.9 -127.3 -56 -135.1C-39 -142.9 -19.5 -144.6 0 -146.2L0 0Z" fill="#f59e0b"></path></g><g transform="translate(0, 0)"><path d="M292.5 0C282 35 271.5 70.1 259.6 107.5C247.7 145 234.3 184.9 206.8 206.8C179.4 228.7 137.8 232.6 101 243.9C64.2 255.2 32.1 273.8 0 292.5L0 0Z" fill="#865521"></path><path d="M146.3 0C141 17.5 135.8 35 129.8 53.8C123.8 72.5 117.1 92.5 103.4 103.4C89.7 114.4 68.9 116.3 50.5 122C32.1 127.6 16.1 136.9 0 146.3L0 0Z" fill="#f59e0b"></path></g></svg>